Coordinates
version=1
nRows=6
nColumns=36
inDegrees=yes

Units are S.I. units (second, meters, Newtons, ...)
If the header above contains a line with 'inDegrees', this indicates whether rotational values are in degrees (yes) or radians (no).

endheader
time	pelvis_tilt	pelvis_list	pelvis_rotation	pelvis_tx	pelvis_ty	pelvis_tz	hip_flexion_r	hip_adduction_r	hip_rotation_r	knee_angle_r	knee_angle_r_beta	ankle_angle_r	subtalar_angle_r	mtp_angle_r	hip_flexion_l	hip_adduction_l	hip_rotation_l	knee_angle_l	knee_angle_l_beta	ankle_angle_l	subtalar_angle_l	mtp_angle_l	lumbar_extension	lumbar_bending	lumbar_rotation	arm_flex_r	arm_add_r	arm_rot_r	elbow_flex_r	pro_sup_r	arm_flex_l	arm_add_l	arm_rot_l	elbow_flex_l	pro_sup_l
      4.69583330	     -6.70295328	      0.68330351	     -0.56977331	      0.37645115	      0.98578749	     -0.04208185	      4.63401492	    -10.31308069	     -9.56347988	      0.31167799	      0.00543981	     -1.15579898	     -8.73499771	     -7.49999987	      7.87644202	     -9.03575034	    -11.06270201	      1.66008644	      0.02897397	     -1.88911680	     -1.16362081	     -7.49999987	     -4.21716972	      0.08626297	      0.22362731	      2.35578228	    -12.46327619	      2.31100806	     45.55272341	     74.45268793	      6.54172078	    -14.25278144	     16.98982719	     55.82630054	     82.01526114
      4.70000000	     -6.55283518	      0.68934950	     -0.51341082	      0.37933033	      0.98308428	     -0.03949192	      4.45107599	    -10.27403268	     -9.50819072	      0.30885637	      0.00539056	     -1.21783651	     -8.81769875	     -7.49999987	      7.74832600	     -9.05946560	    -11.17459298	      1.71968369	      0.03001414	     -1.94830599	     -1.01711454	     -7.49999987	     -4.30405530	      0.03061825	      0.16299228	      2.23859875	    -12.29867928	      2.08036119	     45.38155039	     74.24089672	      6.51301040	    -14.25360944	     16.89207691	     55.67829082	     81.84901823
      4.70416670	     -6.54244923	      0.69196424	     -0.49662273	      0.37586596	      0.98738539	     -0.04246751	      4.48562831	    -10.28700210	     -9.51460596	      0.31249054	      0.00545399	     -1.43023153	     -8.87816510	     -7.49999987	      7.85792543	     -9.03143394	    -11.27281088	      1.83150823	      0.03196585	     -2.10709119	     -1.04735847	     -7.49999987	     -4.36027766	      0.06453473	      0.13097416	      2.28131809	    -12.23589817	      1.83123100	     45.18702872	     74.05619460	      6.55299152	    -14.08099987	     16.79011690	     55.39635508	     81.71000299
      4.70833330	     -6.51073149	      0.69894585	     -0.50580153	      0.37699179	      0.98671551	     -0.04110624	      4.52002691	    -10.27781889	     -9.51291271	      0.31789692	      0.00554835	     -1.44277385	     -8.86992736	     -7.49999987	      7.86726599	     -9.04146222	    -11.29298010	      1.87346119	      0.03269807	     -2.13467345	     -1.04208647	     -7.49999987	     -4.40498285	      0.04937650	      0.10219917	      2.24114162	    -12.20771402	      1.82627442	     45.16938681	     74.06668598	      6.53468576	    -14.05370632	     16.79242025	     55.38167917	     81.73282846
      4.71250000	     -6.35794912	      0.67479994	     -0.42495586	      0.37714565	      0.98712460	     -0.04046362	      4.35321417	    -10.23079452	     -9.73560937	      0.30550206	      0.00533202	     -1.61495901	     -8.62828704	     -7.49999987	      7.86969160	     -9.10441555	    -11.34740705	      2.09545786	      0.03657264	     -2.23179711	     -0.88960157	     -7.49999987	     -4.56962084	      0.07470784	     -0.02613022	      2.30205332	    -11.96965504	      1.36917789	     44.95016547	     73.59353599	      6.57052461	    -13.88946002	     16.52767366	     54.97800733	     81.23405474
      4.71666670	     -6.31012968	      0.65500667	     -0.48470166	      0.37702216	      0.98440373	     -0.03955160	      4.34091864	    -10.18692106	     -9.54102955	      0.31568348	      0.00550972	     -1.79210151	     -8.99018594	     -7.49999987	      7.91745946	     -9.19679173	    -11.60197865	      2.28530952	      0.03988618	     -2.10391235	     -0.64651831	     -7.49999987	     -4.64413142	      0.05919680	      0.04604458	      2.13645738	    -11.75265413	      0.28555526	     45.05221098	     77.42149498	      6.42094555	    -13.71864351	     15.36148964	     55.02879971	     88.31628129
